<?xml version="1.0" standalone="no"?>
<!DOCTYPE svg PUBLIC "-//W3C//DTD SVG 20010904//EN"
 "http://www.w3.org/TR/2001/REC-SVG-20010904/DTD/svg10.dtd">
<svg version="1.0" xmlns="http://www.w3.org/2000/svg"
 width="585.000000pt" height="896.000000pt" viewBox="0 0 585.000000 896.000000"
 preserveAspectRatio="xMidYMid meet">
<metadata>
Created by potrace 1.16, written by Peter Selinger 2001-2019
</metadata>
<g transform="translate(0.000000,896.000000) scale(0.100000,-0.100000)"
fill="#000000" stroke="none">
<path d="M0 4480 l0 -4480 2925 0 2925 0 0 4480 0 4480 -2925 0 -2925 0 0
-4480z m2693 3077 c15 -7 27 -16 27 -21 0 -5 8 -14 17 -21 10 -7 19 -28 20
-46 10 -111 12 -123 27 -131 9 -5 16 -15 16 -23 0 -18 -70 -9 -87 12 -7 9 -13
11 -18 4 -3 -6 -14 -11 -24 -11 -13 0 -20 -10 -25 -30 -5 -29 1 -43 42 -85 6
-8 12 -21 12 -30 0 -9 -6 -15 -12 -14 -7 1 -26 -3 -41 -9 -16 -7 -34 -12 -42
-12 -8 0 -17 -4 -20 -10 -3 -5 -40 -10 -81 -10 -61 0 -80 -4 -104 -21 -17 -13
-35 -19 -45 -15 -14 5 -16 2 -11 -19 4 -15 2 -25 -4 -25 -7 0 -9 -13 -4 -35 4
-23 2 -35 -5 -35 -8 0 -7 -7 1 -22 23 -39 45 -60 53 -49 3 6 15 11 26 11 11 0
17 5 14 10 -3 6 3 10 13 10 11 0 22 9 25 20 6 23 27 27 27 6 0 -8 6 -17 13
-19 6 -3 3 -6 -8 -6 -16 -1 -17 -3 -6 -10 8 -5 20 -7 28 -4 7 3 13 1 13 -5 0
-16 -28 -34 -41 -26 -7 4 -9 3 -6 -3 4 -6 23 -14 42 -17 35 -7 44 -19 25 -31
-18 -11 -11 -35 10 -35 24 0 110 76 110 96 0 8 7 14 15 14 8 0 19 16 24 38 13
45 43 67 71 52 33 -18 43 -48 36 -114 -3 -33 -7 -97 -8 -141 -1 -43 -8 -91
-15 -106 -12 -25 -16 -26 -51 -18 -27 6 -43 4 -59 -7 -27 -17 -29 -31 -6 -56
19 -21 36 -23 63 -6 34 22 48 -6 42 -84 -4 -60 -7 -68 -24 -68 -11 0 -42 -11
-68 -24 l-48 -24 -12 24 c-13 23 -14 23 -42 6 -35 -20 -44 -34 -53 -87 -4 -22
-10 -44 -14 -50 -3 -5 -6 -14 -6 -19 0 -5 -8 -14 -19 -20 -14 -8 -20 -8 -23 2
-3 6 -9 12 -14 12 -4 0 -6 -7 -3 -15 11 -27 -12 -16 -26 13 -7 15 -15 22 -17
14 -7 -17 -23 -5 -23 18 0 11 -8 24 -18 29 -10 5 -24 22 -32 38 -8 15 -19 31
-25 35 -5 4 -9 26 -9 49 1 22 -1 37 -5 31 -3 -5 -7 17 -8 50 -1 32 -6 65 -11
71 -5 7 -13 30 -17 52 -4 22 -11 45 -17 52 -12 15 -11 157 1 233 5 30 13 87
16 126 8 82 32 131 74 147 22 8 31 22 44 61 8 28 11 53 7 56 -5 3 -10 35 -13
72 -4 64 -2 69 27 99 17 17 51 45 76 62 25 17 47 34 50 37 20 27 106 30 163 7z
m176 -303 c36 -8 40 -27 14 -73 -25 -44 -56 -39 -59 9 -2 20 -3 40 -4 45 -6
27 -1 29 49 19z m-389 -219 c0 -7 -12 -16 -27 -20 -16 -3 -36 -14 -46 -22 -21
-20 -31 -11 -23 21 4 18 11 23 25 19 10 -2 25 2 32 10 16 16 39 12 39 -8z
m-316 -101 c6 -10 16 -22 22 -26 13 -9 17 -64 8 -141 -5 -48 -8 -56 -20 -46
-11 9 -14 6 -14 -17 1 -31 20 -64 39 -64 7 0 9 9 5 24 -3 14 -1 33 4 42 9 16
11 13 16 -16 15 -96 27 -220 21 -230 -11 -17 -41 -11 -67 13 -21 19 -29 45
-47 142 -13 64 -29 136 -37 159 -17 46 -11 91 11 83 8 -4 15 4 19 19 4 13 13
24 21 24 22 0 18 21 -5 27 -21 5 -25 15 -13 27 10 10 25 2 37 -20z m686 -440
c0 -8 -4 -14 -10 -14 -5 0 -10 9 -10 21 0 11 5 17 10 14 6 -3 10 -13 10 -21z
m8 -73 c-2 -8 -9 -16 -15 -19 -9 -2 -13 8 -13 35 1 36 1 37 16 18 8 -11 13
-26 12 -34z m-103 -101 l20 -9 -20 -1 c-19 -1 -19 -2 3 -13 25 -15 20 -27 -13
-27 -25 0 -45 -18 -45 -41 0 -13 -8 -17 -29 -17 -17 1 -40 -6 -53 -14 -19 -13
-27 -13 -41 -3 -28 20 -20 56 20 93 34 31 42 33 80 28 26 -3 43 -2 43 4 0 12
8 12 35 0z m-325 -120 c0 -5 -2 -10 -4 -10 -3 0 -8 5 -11 10 -3 6 -1 10 4 10
6 0 11 -4 11 -10z m-40 -11 c0 -11 101 -145 148 -195 12 -14 22 -30 22 -36 0
-5 7 -8 15 -5 8 4 17 2 20 -3 4 -6 1 -10 -4 -10 -22 0 -10 -18 17 -24 93 -23
104 -28 93 -39 -15 -15 -14 -27 4 -27 8 0 15 -4 15 -9 0 -5 -10 -7 -22 -4 -23
5 -23 4 2 -17 14 -12 20 -19 13 -16 -6 4 -14 2 -18 -4 -3 -6 0 -13 9 -16 8 -3
14 -14 13 -24 -1 -18 -3 -18 -37 2 -31 19 -106 74 -120 88 -20 20 -50 42 -50
37 0 -11 60 -65 125 -115 33 -25 76 -60 96 -79 40 -38 84 -54 117 -42 12 5 59
38 103 74 76 61 118 85 89 50 -13 -16 -6 -33 22 -53 19 -14 19 -37 -4 -125 -7
-29 -13 -37 -24 -33 -24 9 40 -66 97 -115 95 -80 97 -81 97 -43 0 15 3 29 8
33 5 3 16 19 24 34 19 37 25 17 12 -36 -6 -23 -13 -72 -17 -109 -10 -120 -74
-415 -160 -743 -15 -55 -33 -136 -41 -180 -8 -43 -16 -80 -18 -82 -1 -2 -6 88
-9 199 -7 202 -27 449 -47 563 -6 33 -8 74 -4 90 8 46 46 148 60 165 7 9 26
36 43 60 l30 45 -66 67 c-83 84 -140 116 -219 122 -49 3 -66 0 -99 -19 -49
-29 -97 -79 -159 -167 l-47 -68 38 0 c20 0 57 7 80 16 41 16 44 16 63 -1 23
-21 36 -71 22 -88 -5 -7 -24 -48 -41 -92 -18 -44 -38 -93 -46 -110 -7 -16 -16
-58 -18 -93 -3 -35 -14 -80 -26 -102 -11 -21 -30 -80 -41 -129 -12 -50 -25
-93 -30 -96 -19 -12 -22 21 -50 437 l-11 167 27 43 c15 24 20 37 11 30 -9 -8
-19 -22 -22 -33 -9 -26 -32 -24 -38 4 -3 12 -13 76 -22 142 -9 66 -25 162 -36
213 -27 130 -22 359 8 369 7 3 6 26 -3 66 -16 76 -16 77 -4 77 6 0 10 -5 10
-11z m82 -21 c-7 -7 -12 -8 -12 -2 0 14 12 26 19 19 2 -3 -1 -11 -7 -17z m73
2 c-4 -6 17 -8 57 -6 38 3 96 -2 144 -12 l82 -17 -19 -24 c-10 -13 -19 -20
-19 -16 0 4 -6 2 -14 -5 -8 -6 -12 -18 -9 -26 4 -12 -3 -15 -33 -13 -22 1 -49
-1 -62 -5 -19 -6 -24 -4 -29 13 -3 12 -10 21 -15 21 -5 0 -6 -4 -3 -10 3 -5
-4 -10 -15 -10 -16 0 -20 4 -16 15 3 9 -1 18 -10 22 -8 3 -22 19 -30 35 -10
19 -21 28 -30 24 -8 -3 -14 1 -14 9 0 8 9 15 21 15 11 0 17 -4 14 -10z m373
-3044 c53 -9 92 -7 92 3 0 10 98 26 106 18 3 -3 -15 -14 -40 -26 -26 -11 -65
-30 -89 -41 -47 -22 -82 -26 -92 -10 -3 5 -22 9 -41 8 -28 -1 -41 5 -64 30
-19 21 -24 32 -14 32 19 0 24 1 64 15 31 11 35 10 38 -5 2 -12 16 -20 40 -24z
m-464 -35 c23 -9 13 -18 -34 -31 -30 -9 -35 -4 -24 24 7 17 27 19 58 7z m1121
-132 c36 -23 23 -24 -35 -4 -23 8 -54 15 -69 15 -21 0 -23 2 -11 10 20 14 78
3 115 -21z m-979 2 c-4 -5 6 -14 21 -19 19 -7 22 -11 10 -11 -10 -1 -25 -8
-34 -17 -9 -9 -22 -12 -32 -8 -9 3 -27 9 -41 11 -19 3 -22 2 -10 -6 8 -5 18
-7 22 -5 4 3 5 -1 3 -8 -3 -7 -15 -19 -27 -27 -18 -11 -20 -11 -15 2 3 9 -4
19 -21 27 -20 9 -23 14 -12 18 8 3 17 8 20 12 3 3 30 13 60 22 30 9 56 16 58
17 2 0 1 -3 -2 -8z m-307 -30 c10 -6 6 -13 -19 -27 -44 -26 -94 -113 -126
-219 -23 -75 -28 -109 -28 -206 l-1 -115 -29 5 c-51 11 -70 49 -69 138 3 228
170 488 272 424z m171 -51 c0 -5 -10 -10 -22 -10 -19 0 -20 2 -8 10 19 13 30
13 30 0z m100 -20 c0 -5 -4 -10 -10 -10 -5 0 -10 5 -10 10 0 6 5 10 10 10 6 0
10 -4 10 -10z m-91 -31 c-10 -6 -8 -9 9 -9 25 0 29 -19 10 -52 -21 -36 -31
-44 -66 -51 -36 -7 -39 -2 -16 31 8 12 11 22 5 22 -17 0 -81 -72 -88 -98 -5
-21 -10 -23 -49 -20 -27 2 -43 -1 -41 -7 2 -5 19 -9 38 -7 30 3 34 0 35 -23 1
-14 -1 -25 -5 -26 -62 -8 -121 3 -121 23 0 5 5 6 10 3 6 -4 10 7 10 24 0 20 5
30 13 29 6 -2 12 5 12 15 0 9 -4 17 -9 16 -5 0 -13 5 -17 13 -6 9 -9 6 -9 -12
-1 -22 -2 -23 -11 -7 -12 21 13 98 39 119 9 7 13 8 10 3 -4 -6 -3 -17 3 -25 7
-13 9 -13 9 1 0 16 29 18 84 4 19 -5 27 -4 23 2 -8 12 14 23 45 23 14 0 18 5
14 16 -5 13 -1 14 23 9 19 -4 32 -2 37 6 6 10 9 10 12 0 2 -7 -2 -17 -9 -22z
m76 2 c3 -5 1 -12 -5 -16 -5 -3 -10 1 -10 9 0 18 6 21 15 7z m335 -11 c0 -11
-4 -20 -10 -20 -5 0 -10 -9 -10 -19 0 -11 -4 -23 -10 -26 -5 -3 -10 -1 -10 6
0 8 -4 8 -12 2 -7 -6 -22 -13 -33 -15 -11 -3 -29 -9 -40 -13 -11 -5 -1 6 22
23 23 18 50 43 59 57 20 30 44 33 44 5z m562 -54 c1 -10 -3 -21 -9 -23 -9 -3
-13 6 -13 28 0 34 15 31 22 -5z m277 -14 c0 -30 -2 -33 -9 -17 -12 28 -12 67
0 60 6 -3 10 -23 9 -43z m-794 8 c-3 -5 -11 -10 -16 -10 -6 0 -7 5 -4 10 3 6
11 10 16 10 6 0 7 -4 4 -10z m-254 -81 c-12 -10 -27 -16 -32 -13 -14 8 -68
-27 -62 -41 2 -7 -3 -15 -11 -18 -9 -4 -16 -1 -16 5 0 7 -7 5 -17 -5 -10 -10
-18 -27 -18 -39 0 -15 -10 -25 -39 -35 -22 -7 -42 -10 -45 -7 -12 11 116 115
183 149 71 36 99 38 57 4z m-316 -39 c3 -5 2 -10 -4 -10 -5 0 -13 5 -16 10 -3
6 -2 10 4 10 5 0 13 -4 16 -10z m553 -51 c-2 -6 -6 -9 -10 -7 -3 2 -15 -5 -25
-15 -11 -9 -23 -14 -26 -10 -4 3 5 14 21 24 32 21 45 23 40 8z m-123 -69 c-49
-25 -57 -25 -26 0 13 11 33 20 44 20 15 0 11 -5 -18 -20z m-50 -38 c-3 -3 -11
0 -18 7 -9 10 -8 11 6 5 10 -3 15 -9 12 -12z m-55 -12 c0 -6 -8 -14 -17 -17
-20 -7 -77 -63 -66 -63 24 -1 -36 -30 -61 -30 l-31 0 25 20 c21 17 140 97 148
99 1 1 2 -4 2 -9z m-310 -31 c0 -5 -4 -9 -10 -9 -5 0 -10 7 -10 16 0 8 5 12
10 9 6 -3 10 -10 10 -16z m90 -132 c0 -5 -4 -6 -9 -3 -5 4 -12 0 -14 -6 -3 -7
-6 -4 -6 8 -1 11 2 24 6 27 7 7 23 -11 23 -26z"/>
<path d="M2270 6693 c0 -5 5 -15 10 -23 8 -12 10 -11 10 8 0 12 -4 22 -10 22
-5 0 -10 -3 -10 -7z"/>
<path d="M2624 6683 c-59 -66 -106 -183 -73 -183 21 0 96 91 102 123 4 18 9
42 13 55 8 28 -18 31 -42 5z"/>
<path d="M2280 6600 c0 -5 5 -10 11 -10 5 0 7 5 4 10 -3 6 -8 10 -11 10 -2 0
-4 -4 -4 -10z"/>
<path d="M2100 6810 c0 -5 5 -10 11 -10 5 0 7 5 4 10 -3 6 -8 10 -11 10 -2 0
-4 -4 -4 -10z"/>
<path d="M2425 5990 c3 -5 8 -10 11 -10 2 0 4 5 4 10 0 6 -5 10 -11 10 -5 0
-7 -4 -4 -10z"/>
<path d="M2660 5810 c0 -5 5 -10 11 -10 5 0 7 5 4 10 -3 6 -8 10 -11 10 -2 0
-4 -4 -4 -10z"/>
<path d="M3153 5376 c3 -8 0 -17 -7 -19 -17 -7 -43 -110 -57 -231 -12 -100 -9
-339 4 -352 17 -17 26 19 37 150 6 77 18 173 26 215 35 195 38 219 24 235 -16
20 -34 21 -27 2z"/>
<path d="M2240 2692 c0 -4 18 -9 40 -10 23 -2 40 2 40 8 0 5 -18 10 -40 10
-22 0 -40 -4 -40 -8z"/>
</g>
</svg>
