<svg xmlns="http://www.w3.org/2000/svg" width="533.333" height="533.333" viewBox="0 0 400 400"><path fill="#00d4ff" d="M0 200v200h400V0H0zM220.5 57.4c11.4 2.8 16.5 4.9 26 10.7 13.6 8.3 28.2 13.4 42 14.8l7 .8-4.8 2.2c-10.3 4.8-20.6 3.5-35.4-4.6-4.7-2.5-8.4-4.2-8.2-3.7 3.8 9 14.2 22.7 21.8 28.7 9.4 7.5 24.1 12.3 34.7 11.4 3.3-.3 10.3-1.9 15.5-3.6l9.4-3-4.8 4.4c-8.1 7.5-14.2 9.8-26.8 10.3-8.9.4-11.8.1-15.7-1.3-7.1-2.7-12.9-7.1-21.2-15.9-19.6-21-27.2-27.1-42.4-34.2-23-10.6-44.8-12.1-72.1-4.9-4.9 1.3-9.9 2.7-11 3-2 .7-2 .7 0-.8 3.7-2.8 17.9-9.4 25.8-12.1 17.9-6.1 41-7 60.2-2.2m-23.7 22.5c16.6 4.8 31.1 13.7 44 26.9 4.5 4.6 8.1 8.6 7.9 8.8s-4.2-1.9-8.8-4.7c-30.3-18.3-56.3-25-78.4-20.4-7.8 1.6-21.2 7.8-26.4 12.3l-3.5 2.9 9.5.7c12.9 1 30.5 4 30.1 5.1-.1.6-3.1 5-6.6 10-3.5 4.9-7.4 11.1-8.7 13.7l-2.3 4.8 4.2 3.5c4.9 4.2 10.7 15.4 12.2 23.4.6 2.9 1 8.7 1 12.7v7.4h12.7l3.2-5c5.6-8.6 12.3-11.6 19.3-8.7 8.7 3.7 9.5 17.8 1.7 29.3-5.5 8.1-14.9 14.3-21.5 14.4-2.8 0-3.2.4-4.4 4.2-3.1 10.7-11.3 21.8-20.4 27.7-7.2 4.8-15.8 8.1-29.5 11.6-19 4.8-26.5 4.4-31.6-1.6-2.8-3.4-3-5.7-1.3-14 1.2-5.9.9-7.5-2.4-12.1-1-1.4-.9-2.3.6-4.8 1-1.7 1.6-3.3 1.4-3.4-.1-.2-1.3-.9-2.6-1.5-2.5-1.3-2.7-3.2-1-9.4 1.8-7 .7-9.4-5.4-11.2-12.7-3.7-12-7.4 5.7-28.8l10.6-12.9-3.2-3.5c-2.5-2.9-3-4.2-2.5-6.7.7-4 9.2-20.5 16.6-32.3 5.2-8.2 5.6-9.3 4-9.8-1.1-.3-3.3-1.9-4.9-3.5-6.2-5.7-3.1-12.1 8.6-18.3 7.5-3.9 11.3-5.1 25.3-7.8 13.1-2.5 36.2-2 46.8 1m7.7 31.5c3.9 1.8 15.5 9 25.9 16.1 28.5 19.3 38.1 22.9 59.6 22.4 25.4-.6 29.2-.4 34.5 2 4.8 2.1 11.5 7.6 11.5 9.3 0 .5-1.2.2-2.7-.6-3.8-1.9-12.4-3.6-18.1-3.6-2.6 0-10.7.9-18 2-25.2 3.8-37.1 2.1-53.2-7.4-9-5.3-15.3-10.7-31.4-27-8.7-8.9-13.7-13.1-17.6-15l-5.5-2.7 4 .6c2.2.3 7.2 2.1 11 3.9M219 157c2.5 1.2 9.2 5.2 14.9 8.7 17.6 11.1 23.8 13.2 45.4 15.9 7 .8 15.3 2.4 18.4 3.5 10.8 3.7 20.7 11.9 25.3 20.9l2.2 4.3-5.9-4.6c-11.6-9.1-23-12.7-40.3-12.7-14.8 0-21.6-1.3-30.9-5.7-6.4-3.1-9.2-5.4-20.4-16.9-7.1-7.3-14.3-13.8-15.8-14.5-1.6-.6-2.9-1.5-2.9-2 0-1 4.6.3 10 3.1m34.5 50.5c20.9 6.1 25.9 8.2 31.5 13.2 4.8 4.3 7.9 9.5 9.9 16.8l1.1 4-5.8-6.2c-7.2-7.8-11.5-10.5-22.2-13.9-13.9-4.4-20.6-8.1-30-16.5-2.3-2-2.8-2.9-1.5-2.4 1.1.4 8.8 2.6 17 5m-13.3 20.7c3.1 4 7.9 9.7 10.9 12.5 5.4 5.3 16.6 11.7 22.7 12.9 5.3 1.1 3.6 2.4-3.2 2.4-15 0-25.3-6.3-31.4-19.1-2.5-5.3-5.6-15.9-4.7-15.9.1 0 2.7 3.3 5.7 7.2m-32.5 3.2c1.7 1.8 4.7 7.8 6.8 13.2 6 15.8 11.9 24.4 20.8 30.2l4.1 2.7-4 .3c-4.4.4-19.1 4.3-27.1 7.2-14 5.2-32 15.7-56.3 32.9-15.2 10.8-19 13.3-19 12.7 0-.3 2.7-5.6 5.9-11.8 3.5-6.8 6.2-13.4 6.7-16.4 1-6.8-.8-18-4-24.3-1.4-2.9-2.6-5.4-2.6-5.6 0-.1 2.1-.8 4.8-1.5 19.6-4.9 34.3-15.4 42.9-30.7 5.9-10.7 7.7-12.3 13.3-12.3 4.2 0 5.2.4 7.7 3.4"/></svg>