<svg xmlns="http://www.w3.org/2000/svg" width="600" height="600" viewBox="0 0 450 450"><g fill="#00d4ff"><path d="M0 225v225h450V0H0zM200.5 53.5c8.9 1.8 28.7 11.6 39.2 19.4 6.4 4.8 23.6 22.1 22 22.1-.3 0-5.1-3-10.8-6.6C230 75.2 204 63.8 188.6 61.1c-12.9-2.3-37.7-.3-48.8 3.9-6 2.3-5.3 1 1.5-2.8 15.2-8.6 41.2-12.4 59.2-8.7m47.5 5.2c9.8 4.7 18.2 11.9 22.4 19.3l2 3.4-2.5-1.9c-1.4-1.1-5.6-4.5-9.4-7.7-3.9-3.1-11.5-8.6-17-12.3-11-7.4-9.9-7.6 4.5-.8m50.7 6.6c10.6 4.8 11.8 5.7 12.1 8.2.7 5.4-.6 7.3-7.5 11.1-6.8 3.9-17.8 8.6-22.5 9.8-2.6.6-2.8.4-2.8-2.2 0-2.5.6-3.1 5.8-5.1 9-3.7 18.2-9.1 18.2-10.7 0-.9-3.6-3.2-9-5.7-5.9-2.8-8.9-4.8-9-5.9 0-2.2 1-4.8 2-4.8.5 0 6.2 2.4 12.7 5.3m49.7 15.9 4.1 3.8-3.5 3c-3.5 3.1-20.5 12-22.8 12-.9 0-.9-.7.1-3.3 1-2.3 3-4.1 7.7-6.7 3.5-1.9 6.5-4 6.7-4.6.3-1-12.8-9.4-14.5-9.4-.4 0-2.7 6.2-5.1 13.8-6.4 20.2-5.5 18.5-9 16.8l-2.9-1.6 5.5-17.2c3-9.5 5.9-18.3 6.4-19.6l.9-2.3 11.1 5.7c6.1 3.2 13 7.5 15.3 9.6M179 72.5c4.1.7 10 2.2 13 3.3l5.5 1.9-11.2-.5c-17.2-.8-31.1 2.2-46.6 9.8-11.5 5.6-23.1 16.9-19.6 19.1 1.9 1.1 24.1 6.4 36.2 8.4 5.3 1 9.7 2.1 9.7 2.5s-.6 1.3-1.4 2c-2.3 1.8-13 17.9-16 23.9l-2.7 5.3 2.3 1.6c9 6.3 14.9 19.9 16.4 37.9l.7 8.3h3.1c1.7.1 6.5.7 10.6 1.4l7.5 1.3 5.5-4.9c10.3-9.2 20.4-12 27-7.6 5.2 3.5 7.2 8.1 6.6 15-1.1 11.2-7.6 22.6-16.9 29.4-6.9 5.2-12.1 6.8-19.9 6.2l-5.6-.4-2.5 5.5c-3.8 8.8-11 17.7-17.8 22.1-12.6 8.1-48.5 17.1-61.8 15.5-4.4-.6-6.2-1.4-8.8-4-3.8-3.8-4.2-7.2-1.8-15.1 2-6.6 1.9-9-.7-12.4-1.9-2.6-2-3.4-1-6.7.6-2.1.8-3.9.3-4.1-.4-.1-1.7-.9-2.7-1.6-1.7-1.3-1.8-1.8-.5-7.3 2.5-11 2.5-11-.2-13.7-1.5-1.5-3.8-2.6-5.2-2.6-3.9 0-8.4-2.7-9.1-5.5-.8-3.4 2.5-8.6 13.6-21.5 4.9-5.8 9.7-12 10.6-13.9 1.5-3.1 1.5-3.7 0-6.8-.9-1.8-1.6-4.7-1.6-6.3 0-3.1 10-25.5 17.3-38.8 2.1-4 3.8-7.4 3.6-7.5-.2-.2-2.1-1-4.2-2-15.5-7 2.4-27.8 30-34.7 15.8-4 26.4-4.7 38.3-2.5m186.5 24.6c-7.5 17.7-19 28-36.8 33-10.4 2.9-26 3.1-35.7.5-7.5-2.1-18.2-7.4-23.1-11.6l-3.4-2.9 7 3.4c18.7 9 43.8 8.5 64.9-1.5 8.1-3.9 20.2-14.8 25.6-23.2 1.9-3 3.6-5.1 3.8-4.7s-.9 3.5-2.3 7m-132.1-5c3 1.1 6.5 2.9 7.8 4l2.3 2-3.5-1.7c-1.9-1-6.6-2.8-10.5-4-4.7-1.5-6.1-2.3-4.3-2.3 1.5-.1 5.2.8 8.2 2m-32.5 2.5c12 3.5 29.3 13.9 59.6 35.9 14.3 10.4 28.4 18.2 40.9 22.7l8.1 2.9-7.5-.5c-16.7-1.2-30-6.4-52.5-20.7-23.5-14.9-33.9-21.1-42-24.9-16-7.4-36.7-13-49-13.1-4.2-.1-7.4-.3-7.2-.6.3-.2 3.4-1.1 6.8-2 13.6-3.3 30.9-3.1 42.8.3m-8.9 38.3c0 2.4-.4 2.8-2.5 2.8-3.6 0-3.8.5-4.3 7.6-.2 3.4-.9 6.8-1.5 7.5-.7.9-.7 1.6.1 2.4.7.7 1.2 3.8 1.2 6.9 0 6.2 1.6 8.9 5.1 8.9 1.4 0 1.9.7 1.9 2.5 0 2.9-2.4 3.3-7.9 1.4-3.4-1.2-3.9-2.5-4.3-10.9-.3-4.6-.7-5.7-2.5-6.5-2.8-1.2-3.1-5.1-.4-6 1.5-.4 1.9-2 2.5-7.7.9-9.4 2.5-11.2 10.4-11.7 1.8-.1 2.2.4 2.2 2.8m17.2-.2c1.1 1 1.8 3 1.8 5.2 0 6.9 1.2 11.3 3.2 11.9 2.2.5 2.5 5.2.3 5.2s-3.5 3.3-3.5 9.2c0 6.2-.6 7.3-4.3 8.7-4.9 1.9-7.7 1.4-7.7-1.2 0-1.7.8-2.5 3.3-3.2 3.1-1 3.2-1.1 3.5-7.5.2-3.5.8-7 1.4-7.8.8-.9.8-1.6 0-2.4-.7-.7-1.2-3.7-1.2-6.8 0-6.1-1.1-8-4.7-8-1.9 0-2.3-.5-2.3-3.1 0-3.1 0-3.2 4.2-2.5 2.3.4 5 1.4 6 2.3m169.8 5.9c5.1 1.5 13.1 6.2 14.5 8.4.3.6-.6.5-2.2-.2-4.1-1.7-19.9-1.4-35.3.6-17.8 2.4-28.8 1.3-41-4.1l-4.5-2 13-.1c8.5 0 16.6-.7 23.5-2 13-2.5 24.9-2.7 32-.6m-130 21.7c8.3 5.2 17.5 9.6 27 13 7.8 2.8 9.8 3 25.1 3.5 18 .4 27.7-.8 36.7-4.8l4.6-2.1-2.2 2.4c-3.1 3.3-10.4 7.1-17.7 9.3-8.1 2.5-32.7 2.5-43.5.1-13.9-3.1-27.1-11.2-35.7-22-6.4-8-7.5-10-3.2-6.1 1.9 1.8 5.9 4.8 8.9 6.7m128.2 9.7c3.8 7.2 1.3 18.4-5.2 23-4.4 3.1-4.9.5-1.1-5.6 4.5-6.9 4-14.6-1.1-20.1-1.2-1.3-1.8-2.9-1.4-3.9.6-1.4 1-1.4 3.8.8 1.7 1.3 4 4 5 5.8m-16.2-5.1c0 1-.7 2.4-1.6 3.2-2.6 2.1-4.4 6.6-4.4 10.9 0 3.9 2.9 11.2 5 12.5 1.3.8 1.3 4.5 0 4.5-2.5 0-8.1-6.5-9.6-11.3-2.2-6.9-.7-12.6 4.6-17.9 4.2-4.2 6-4.8 6-1.9m-99.5 31.2c13.2 6.2 30.6 10.2 58.5 13.4 30.4 3.5 46.2 10.2 56.2 23.9 3.8 5.3 3.5 6.4-.7 2.7-10.2-8.9-27.4-13.3-67.7-17.1-14.9-1.4-27.9-4.9-37.8-10.1-10.8-5.6-23.8-16.9-28.4-24.7-.5-.8 2 .8 5.5 3.4s10 6.4 14.4 8.5m-9 26.5c-.8 2-1.5 3.8-1.5 3.9s-2.9 2.2-6.5 4.5-6.5 4.5-6.5 4.9 1.3 1.4 2.9 2.4c1.6.9 5.2 3.5 8 5.7 4.1 3.3 5.1 4.6 5.1 7.1 0 2.8-.2 2.9-2.2 1.8-4.1-2.1-23.7-16.4-24.2-17.5-.4-1 23.6-16.3 25.7-16.4.4 0 0 1.6-.8 3.6m21.5 7.8 10.1 7.4-4.3 3.5c-4.9 4-17.9 12.7-19 12.7-1.4 0-.9-3.5.8-5.9.9-1.3 4.3-4 7.4-6l5.8-3.6-5.6-4.5c-4.5-3.6-5.8-5.2-6-7.8-.2-1.7-.1-3.2.2-3.2s5.1 3.3 10.6 7.4m51.4-.4c18.3 6.2 27.7 15.5 33.7 32.7l1.8 5.3-12.2-12.4c-12-12.2-26.5-23.1-36.1-27.1-2-.8-3.6-1.7-3.6-1.9 0-.7 11 1.5 16.4 3.4m-122.9 21c5.9 2.2 9.2 7.7 15.5 25.5 5.3 14.9 7.6 19.5 14 27.9l5.1 6.6h-3c-6.5 0-32 9.4-50.5 18.7-14.9 7.4-19.6 10.3-43.7 27-11.4 7.9-21.2 14.3-21.9 14.3-1.4 0 1.4-4.9 12.8-22.4 10.4-16 12.2-19.9 12.8-28.4.4-5.8.1-7.9-2.9-16.2-1.9-5.2-3.8-10.3-4.2-11.3-.6-1.4-.1-1.7 3.1-1.7 4.8 0 14.2-2.2 21.7-5 9.3-3.5 16.8-10.9 25.1-24.7 4-6.8 8.7-11.3 11.6-11.3 1 0 3 .4 4.5 1m103.4 3.1c11 3.8 18.4 9.7 24.8 19.7 3.2 5 7.8 16.1 6.9 16.9-.2.2-3.1-3.4-6.4-8-8.5-11.7-16.4-18.7-27.2-24.1-5-2.5-10.6-4.8-12.5-5.2-1.9-.3-3.2-1-2.9-1.6.8-1.3 10.6 0 17.3 2.3M283.6 270c11.7 5.7 19.4 13.1 27.4 26.5l2.4 3.9-5.9-3.3c-3.3-1.9-8.4-5.2-11.5-7.4-6.3-4.6-20.2-17.8-23.2-22.1l-2.1-2.8 2.4.6c1.3.4 6.1 2.5 10.5 4.6m-5.6 28.3c4.1 3 10.2 7.2 13.5 9.2l6 3.7-5.5-.6c-3.5-.3-8.6-2.1-14-4.7-11.9-5.9-21.8-15.9-28.3-28.7-2.6-5.1-4.7-9.5-4.7-9.8 0-.4 5.7 5.2 12.8 12.3 7 7.2 16.1 15.5 20.2 18.6"/><path d="M199.8 205.9c-1.9 1.5-2.9 3.6-3.6 7.8-.6 3.2-1.3 6.6-1.7 7.5-.6 1.5-.2 1.8 2 1.8 3.8 0 10.2-6.7 11.1-11.7 1.2-6.4-2.9-9.2-7.8-5.4"/></g></svg>