<svg xmlns="http://www.w3.org/2000/svg" width="533.333" height="533.333" viewBox="0 0 400 400"><path d="M155.2 49.1c-17.1 2.2-35.3 9-43.9 16.3-10.2 8.8-11 22.5-1.8 29.8l2.4 1.8-3.4 6.8C98.4 123.5 94 133.3 94 135.6c0 1.5.9 4.2 2 6l2.1 3.3-3.5 6.8c-1.8 3.7-6.8 11.5-11 17.2-7.9 10.8-8.9 13.8-6.1 17.8.9 1.2 3.9 2.8 7 3.8 4.2 1.2 5.8 2.2 7 4.5 1.4 2.6 1.4 3.4-.1 7.2-.9 2.4-1.7 5.6-1.8 7.3-.1 2.4.3 3.1 2.2 3.3 1.8.3 2.2.8 1.6 2-1.8 4.4-1.5 6.8 1.5 10.6 3.5 4.4 3.7 5.7 1.6 11.6-2.9 8.2-1.1 13.5 5.4 16.5 13.7 6.1 54.9-6.8 74.2-23.3 2.2-1.9 4.2-3.2 4.5-3 .9 1-6.4 9-12.1 13.3-3.3 2.4-11.2 7.1-17.6 10.2l-11.7 5.8 2 3.9c2.6 5.1 7.8 25.6 7.8 30.7 0 6-3.3 14.2-10.5 26.3-3.6 6-6.4 11-6.2 11.2.8.8 28-16.8 42.7-27.5 23.9-17.5 40.7-26.8 56-30.9 10.5-2.9 22.8-4.5 31-4 3.8.2 7 .3 7 .2s-3.8-3.2-8.5-6.9c-15.2-11.9-23.4-24-27-40-.6-2.7.1-2.3 7.2 4.6 11.9 11.6 21.6 15.5 36.2 14.7 7-.4 14.1-2.8 14.1-4.9 0-.3-2.5-.9-5.5-1.3-16.5-1.9-31.9-14.1-40.3-31.9-2.9-6.1-5.5-13.8-4.8-14.4.1-.2 2.7 3.1 5.7 7.3 9.9 14 20.6 21.3 34.4 23.5 8.1 1.3 15.6.2 22.1-3.2 3.8-2.1 9.4-6.7 9.4-7.9 0-.3-2.8-.7-6.2-.7-16.5-.5-32.5-8.4-45-22.3-5.1-5.5-10.7-15.1-12.3-20.8-.6-2.1.2-1.8 7 2.8 13.5 9.1 25.4 13.3 41.7 14.5 13.1 1.1 26-2.7 29.7-8.8 1.1-1.6 1-1.8-.6-1.3-9.8 3.1-26.1 2.4-37.1-1.4-9.5-3.4-23.2-13.9-31.5-24.5-2.8-3.6-2.9-3.8-.7-2.2 4 2.9 16.1 8.3 21 9.5 12.6 3 25.3 2.3 35.1-1.9 5.5-2.4 12.3-9.2 14.6-14.7 1.6-3.9 3.3-9.2 2.9-9.2-.1 0-2.6 2.3-5.5 5.1-6.4 6.2-11.5 8.6-21.4 9.9-12.5 1.8-24.5-1.2-36.8-9.2-3.5-2.2-13.4-10.9-21.9-19.3s-16.8-16-18.5-16.9l-3-1.7 3 .6c3.3.7 10.4 4.1 27.5 13.2 17.6 9.4 24.9 11.6 39.5 11.7 10.5.1 12.6-.2 17-2.2 6-2.8 9.1-5.5 11.6-10.4 3.1-6.1 2.6-7.2-2-4.3-6.2 3.8-15.3 6.5-22.4 6.5-17.2 0-29.2-5.3-52.7-23-14-10.6-20.9-15.1-30.3-19.6-3.9-1.9-6.2-3.4-5-3.4 5 0 20.5 5.6 37 13.3 27.5 13 34.6 15 44.8 12.7 5-1.1 12.5-5.3 12.5-6.9 0-.5-3.5-.7-7.7-.4-9.9.7-18.1-1.3-28.3-6.9-26.9-14.7-35.1-18.1-52.7-21.9-17.5-3.7-43.8-4.9-60.1-2.8m25.5 27.7c1 .6 0 4.5-3.8 16-5 14.9-5.1 15.2-7.7 14.8-1.5-.2-2.7-.7-2.6-1.2 0-.5 2.1-7.5 4.5-15.7 3.7-12.7 4.6-14.7 6.4-14.7 1.1 0 2.6.4 3.2.8m-17.5 5.4c.9 2.2-.3 3.8-4.1 5.8-6.4 3.2-6.6 4.2-1.5 7.4 3.6 2.2 4.4 3.3 4.4 5.7 0 1.6-.3 2.9-.7 2.9-1.8-.1-14.7-7.6-15.6-9.1-2.7-4.3 1.4-8.5 12.2-12.4 4.6-1.7 4.8-1.7 5.3-.3m32.7 2.1c7.6 3.9 8.9 5.5 7.6 9.4-.8 2.1-2.9 3.8-8.7 6.8-4.2 2.2-8 3.6-8.4 3.3-1.6-1.7.8-5.5 5.1-8.1 2.5-1.5 4.3-3.2 4-3.7-.4-.6-2.4-1.9-4.6-3-2.1-1.1-3.9-2.4-3.9-2.8 0-1.7 1.3-5.2 1.9-5.2.3.1 3.5 1.5 7 3.3m10.1 41.6c0 2.5-.4 3-2.7 3.3-2.7.3-2.8.6-3.1 6.5-.2 3.9-.8 6.6-1.8 7.4-1.3 1-1.3 1.4 0 2.8.9 1 1.6 4.2 1.8 8.1.3 6.3.4 6.5 3.1 6.8 2.1.3 2.7.9 2.7 2.8 0 2.2-.4 2.4-4.2 2.4-6.1 0-7.8-2-7.8-9.1 0-6.6-.7-8.9-2.6-8.9-.8 0-1.4-.4-1.4-.9s-.2-1.5-.5-2.3c-.3-.7.5-1.7 1.7-2.3 2-.9 2.4-1.9 2.8-8.1.7-9.3 2-10.8 9.8-11.3 1.8-.1 2.2.4 2.2 2.8m13.2-1.9c4.7 1.4 5.8 3.3 5.8 10.9 0 5 .4 6.3 2 7.3 1.1.7 2 2.2 2 3.4 0 1.3-.8 2.4-2 2.7-1.7.4-2 1.4-2 7.1 0 7.9-1.9 10.6-7.5 10.6-1.9 0-3.8.1-4.2.2-.5.2-.9-.9-1.1-2.4-.3-2.4.1-2.7 3-3 3.3-.3 3.3-.3 3.6-6.3.1-3.3.7-7 1.4-8.2.8-1.6.8-2.6 0-3.6-.6-.7-1.2-4-1.4-7.2-.3-6-.3-6-3.5-6.3-2.9-.3-3.3-.7-3.3-3.3 0-3.3 1.1-3.6 7.2-1.9m-6.1 54.2c.6 1.6.9 4.9.6 7.3-1.2 11.3-14.4 20.1-24.1 16.1-4.4-1.8-4.7-2.8-.6-2 1.6.4 4 .4 5.4 0 7-1.7 13.6-12.1 13.6-21.4 0-4.9.1-5.2 2-4 1.1.7 2.5 2.5 3.1 4"/></svg>