<svg xmlns="http://www.w3.org/2000/svg" width="600" height="600" viewBox="0 0 450 450"><path d="M324.2 55.7c-.7 2.7-2.9 9.7-4.8 15.6-1.9 6-3.4 11-3.2 11.2.2.1 1.2.5 2.3.9 1.9.5 2.5-.8 7.2-15l5.2-15.5-2.5-1c-1.4-.5-2.6-.9-2.8-.9-.1 0-.7 2.1-1.4 4.7"/><path d="M148.5 54.1c-17.3 2.2-37 10.3-44.4 18.4-6.5 7.1-6.7 14.9-.6 22.9l3.3 4.4-7.5 16.9c-8.8 19.7-9.4 22.4-6.3 28.6l2.2 4.4-3.5 5.5c-1.9 3-7.1 10.2-11.6 16.1-5.9 7.8-8.1 11.5-8.1 13.7 0 3.3 3.2 6.8 7 7.6 4.6 1 5 1.3 6.1 4.1 1 2.6.8 6-.7 12.5-.5 2.3-.1 3 2.5 4.6 2.7 1.7 3 2.1 1.6 3.2-2.3 1.9-1.8 5.4 1.6 9.6 2 2.5 2.9 4.6 2.5 5.9-.3 1.1-1 4.1-1.7 6.8-1.1 4.1-1 5.2.4 8.2 2.5 5.2 6.7 7 16.2 6.9 9.2-.1 18.6-2.5 33.5-8.4s25-12.8 31.2-21.4c1.6-2.2 2.8-3.2 2.8-2.3 0 8.8-14.2 20.5-35.7 29.3-6 2.4-10.7 5-10.7 5.7.1.6 2.7 8.4 5.9 17.2 6.4 17.9 6.6 20.9 2.6 33.4-1.2 3.5-1.9 6.6-1.7 6.8.6.7 22-10.3 36-18.5 29.6-17.2 49.5-25.8 65.5-28.2 3.8-.6 12.4-1 19.1-.8l12.2.3-5.8-5c-16.9-14.2-28-27.9-36.6-45.2-3.5-7.1-4.1-9.3-4.8-17.5-.3-5.1-.6-9.4-.5-9.6.1-.1 2.7 3 5.7 7 18.8 24.8 36 38.8 55.5 45.2 5.2 1.7 5.3 1.7 8.3-.4 1.6-1.2 3-2.4 3-2.8s-4-2.6-8.9-5c-10.8-5.2-25.7-14.4-29.1-17.9l-2.5-2.6 3 1.8c3.9 2.5 13.7 7.2 19.7 9.6 12.1 4.8 28.7 7.3 28.9 4.4.1-.5-4.6-3-10.4-5.6-19.2-8.4-32.1-18.7-44.5-35.3-6.2-8.4-14.2-22-14.2-24.2 0-.3 2.8 2 6.3 5.1 3.4 3.2 8.9 7.6 12.2 9.8 7.8 5.4 27.8 13.9 41.3 17.7 11.3 3.3 32.8 7 40 7h4.3l2.9-6.3 2.8-6.2-14.1-.7c-33.6-1.6-61.4-14.1-78.7-35.4-2.8-3.4-5-6.4-5-6.7 0-.4 1.7.5 3.8 1.9 4.9 3.4 11.9 6.9 18.5 9.4 4.8 1.8 21.6 5.9 24.3 6 .7 0 1.4-2.3 1.7-5.3.3-2.8.8-6.1 1.2-7.2.6-1.9 0-2.2-6.1-3.2-8.6-1.5-20.7-7.4-31.2-15.2-4.5-3.3-15.1-12.8-23.5-20.9-8.3-8.1-16.7-15.7-18.4-16.7-4.5-2.6-4.2-3.8.5-1.8 7.4 3.1 12 5.7 28.4 16.5 33.2 21.6 54.7 28.8 83.3 27.4 18.5-.8 35.1-5.9 48.4-14.9l6.5-4.3-.3-6.5c-.1-3.5-.4-6.5-.6-6.7s-2.9 1.5-5.9 3.8c-7.2 5.3-19.1 11.2-28.6 14.1-6.5 2.1-9.4 2.4-22.5 2.3-27.3-.1-40.6-5.4-77.4-30.6-29.6-20.3-36.3-23.8-60-31.4-.8-.2-1.2-.6-1-.9.8-.7 22.3 4.3 29.9 7.1 10.2 3.6 18.6 8 36.4 18.7 29.2 17.5 44.3 22.9 64.1 22.9 9 0 12.6-.4 20-2.6 21.5-6.4 37.1-19.7 47.4-40.3 1.7-3.4 3.1-6.6 3.1-7.1 0-.9-7.9-5.7-8.4-5.1-.2.2-1.6 3-3.2 6.2-10.8 21.7-34.9 36.8-58.6 36.7-16.6-.1-31.2-5.5-56.5-20.6-28.8-17.3-42.7-22.5-68.1-25.9-11.7-1.6-34.6-1.8-45.7-.4m24.8 27.4c1.1.5 1 2.4-.9 11.8-3.5 16.7-3.1 15.7-6.2 15.7h-2.9l3-14c3-13.8 3.5-14.8 7-13.5m-12.3 6c0 1.9-1 2.9-3.9 4.5-5.6 2.8-5.7 3.6-1.1 6 3 1.5 4 2.6 4 4.5 0 1.3-.4 2.6-.8 2.9-1.4.9-13-5.1-14.1-7.3-1.9-3.5-1.3-6 2.1-7.7 2.4-1.3 10.6-4.5 13.6-5.3.1-.1.2 1 .2 2.4m25.4 1.2c6.1 3.4 6.6 3.9 6.6 7 0 2.3-.7 3.7-2.3 4.8-2.6 1.7-13.8 5.7-14.4 5.1-.2-.2.1-1.4.6-2.8.6-1.6 2.5-3.1 5-4.2 2.3-.8 4.1-1.8 4.1-2.1 0-.2-1.8-1.7-4-3.1-3.1-2.1-4-3.3-4-5.5 0-1.6.4-2.9.9-2.9.4 0 3.8 1.7 7.5 3.7m20.6 40.7c0 1.8-.6 2.5-2.2 2.8-1.9.2-2.4 1-2.6 4.8-.2 2.4-.9 4.8-1.5 5.2-.9.5-.9 1 .1 2 .6.6 1.2 3.1 1.2 5.5 0 3.7.4 4.5 2.5 5.3 1.8.7 2.5 1.7 2.5 3.5 0 2.2-.4 2.5-3.5 2.5-2.5 0-4.4-.8-6.1-2.5-2.2-2.2-2.4-3.1-1.9-6.9.6-3.8.4-4.6-1.4-5.5-2.7-1.5-2.7-4.2-.1-5.9 1.5-.9 2-2.3 2-6 0-5.9 1.2-7.2 6.7-7.2 3.9 0 4.3.2 4.3 2.4m15.2-.7c1.3 1.1 1.8 3 1.8 6.5 0 3.4.5 5 1.5 5.4 2.3.9 1.9 5.5-.6 6.1-1.6.5-1.9 1.1-1.4 3.3.7 3.1-.9 7.8-3.3 9.6-.9.8-3.1 1.4-4.7 1.4-2.7 0-3.1-.3-3-2.8.1-2 .7-2.8 2.3-3 1.9-.3 2.2-1 2.2-5.2 0-2.7.5-5.2 1.1-5.6.8-.4.8-.9 0-1.7-.6-.6-1.1-3.1-1.1-5.5 0-3.5-.4-4.5-2-4.9-1.3-.3-2-1.4-2-2.9 0-2.1.5-2.4 3.7-2.4 2 0 4.5.7 5.5 1.7m-29.3 37.8c7.1 3.6 10.4 12 8.1 20.4-1.2 4.6-7.6 12.3-12.1 14.7-3.5 1.8-9 1.8-11.3.1-1.6-1.2-1.4-1.3 1.9-.9 3.1.4 4.2-.1 7.2-2.9 4.1-3.9 9.3-14.1 9.3-18.2 0-9.2-9.7-14.9-16.4-9.6-4.1 3.2-4.2 1.6-.1-2 4-3.5 8.7-4.1 13.4-1.6"/><path d="M334.2 59.5c-.1 1.4-.1 2.5.1 2.5.1 0 4 1.6 8.7 3.5 8.5 3.4 8.5 3.4 5.5 4.5-11.2 4.2-14 5.7-14.3 7.8-.2 1.2 0 2.2.5 2.2.4 0 5.9-1.9 12.1-4.2 10.3-3.9 11.2-4.4 11.2-6.9 0-2.4-1-3-11.5-7.2-6.3-2.6-11.6-4.7-11.7-4.7-.2 0-.5 1.1-.6 2.5M300 62.1c-9.6 3.6-10.6 4.2-10.5 6.5.1 1.3.6 2.8 1.1 3.3 1.4 1.2 18.4 8.5 18.8 8 .2-.2.6-1.3.8-2.3.2-1.5-1.1-2.5-6.9-4.9-4-1.7-7.3-3.4-7.3-3.8 0-.3 3.4-1.9 7.5-3.4 6.5-2.3 7.5-3 7.5-5.1 0-1.3-.1-2.4-.2-2.3-.2 0-5 1.8-10.8 4m12 88.4c-3.5 6.5-3.4 13.4.3 19.7 2.1 3.7 3.4 4.8 5.2 4.8 3.1 0 3.1-.5-.1-5.2-3.9-5.6-4.3-11.5-1-17.4 3.2-5.7 3.2-6.4.3-6.4-1.6 0-2.9 1.2-4.7 4.5m16-3.6c0 .6.9 2.8 2 4.8 3 5.7 2.7 12-1 17.4-3.6 5.3-3.6 5.9-.9 5.9 3.9 0 8.9-8.7 8.9-15.2 0-5.7-3.7-13.2-6.7-13.6-1.3-.2-2.3.1-2.3.7m37.5 12.7c-2.2.6-7 1.8-10.7 2.5-5 .9-6.8 1.6-6.8 2.8 0 .9-.9 3.5-2 5.8l-1.9 4.3h2.9c1.6 0 6.9-.9 11.8-2.1l9-2 1.2-6.1c.6-3.3 1-6.1.8-6.2-.2-.2-2.1.3-4.3 1m-83.9 43.6c-1.2 4.5-.6 5.8 4.6 9.3 2.9 1.9 5.6 3.5 5.9 3.5.4 0 1.1-1.7 1.6-3.8.8-3.2.7-4.1-.6-4.9-.9-.5-3.7-2.2-6.2-3.7l-4.7-2.6zm17.9 10c-1.5 4.7-1.2 5.1 6.5 7.5 5.7 1.8 9.3 2.3 14.7 2.1 3.9-.2 7.4-.6 7.7-.9s.9-2 1.2-3.7l.7-3.2h-6.9c-3.8-.1-9.8-.7-13.4-1.5-8.1-1.8-10-1.8-10.5-.3M277 320v6h-3c-2.9 0-3 .1-3 4.9 0 4.6.2 5 2.7 5.3l2.7.3.3 11.3c.3 12.8 1.5 16.1 6.7 18.6 3.4 1.6 12 2.2 15 1 1.1-.4 1.6-1.9 1.6-5.3v-4.7l-3.5.4c-5.7.7-6.5-.7-6.5-11.9V336h10v-10h-10v-12h-13zm-187.7 7c-1.8 1.1-3.3 2.4-3.3 3 0 .5-.5 1-1.1 1-.7 0-.9-1-.7-2.5.5-2.5.4-2.5-6.3-2.5H71v42.1l6.6-.3 6.5-.3.3-12c.1-7.2.7-12.9 1.5-14.3 1.4-2.6 4.9-4.2 9.2-4.2 2.9 0 2.9 0 2.9-6 0-5.9-.1-6-2.7-6-1.6 0-4.3.9-6 2m25.2-.9c-7.9 3-13.1 9.9-14.2 18.7-1.1 9.3 3 17.2 11.1 21.4 7.7 4 22.8 2.5 28.8-2.9 1.7-1.5 1.6-1.8-1.3-5.5l-3.1-3.8-3.6 2.2c-2.5 1.5-5.2 2.2-9 2.3-4.7 0-5.7-.4-7.8-2.8-4.6-5.4-4-5.7 13.1-5.7H144v-4.8c0-6.5-4-14.4-8.7-17.3-4.1-2.6-15.9-3.6-20.8-1.8m14.4 11.5c3.8 4.8 3 5.4-6.9 5.4-4.9 0-9-.2-9-.5 0-1.4 3.1-6.4 4.2-6.8.7-.3 3.2-.6 5.5-.6 3.4-.1 4.6.4 6.2 2.5m39.3-11c-1.9 1-3.6 2.3-3.9 3.1-.9 2.4-2.5 1.4-1.9-1.2.6-2.5.6-2.5-6.4-2.5h-7v42.1l6.5-.3 6.6-.3.2-13.6c.2-15.5 1.2-17.9 7.2-17.9 5.4 0 6 1.7 6.3 17.7l.4 14.3h12.6l.4-13.9c.3-12.1.6-14.2 2.2-16 1.5-1.6 2.9-2.1 5.5-1.9 5.3.4 6.1 2.9 6.1 18.5V368h14.3l-.5-16.8c-.5-18.7-1.4-21.8-7.4-24.7-6.4-3-16.2-1-20 4.3-1 1.3-1.5 1.1-4.1-1.8-2.5-2.8-3.7-3.4-8.4-3.7-3.7-.3-6.4.2-8.7 1.3m67.4-.2c-11.1 4.2-16.9 17.8-12.2 29.1 3.7 8.6 10.5 12.8 21.1 12.8 14 .1 22.5-8 22.5-21.6 0-8-2.9-14-8.8-18.1-3.4-2.4-5.3-3-11.4-3.3-4.7-.2-8.7.2-11.2 1.1m15.3 11c2.6 2 4.3 7.6 3.6 11.7-1.6 9.4-13.8 12.1-18 4-3.2-6.2-1.3-14.4 4-16.7 3.2-1.4 8-1 10.4 1m68.6-11.7c-3 .8-11.5 4.5-11.5 5 0 .2.9 2.1 2 4.3l2 3.9 4.2-1.9c2.4-1.1 5.7-2 7.3-2 3.7 0 7.5 2.5 7.5 4.9 0 1.5-1.1 1.9-6.9 2.4-10.8.9-17.6 5.3-18.2 11.7-.5 5.5.2 8 3.1 10.9 5.5 5.4 14.2 5.1 20.3-.7l2.9-2.7-.4 3-.3 3 6.3.3 6.3.3-.3-16.5c-.3-17.9-.7-19.2-7-23.9-2.6-1.9-13.1-3.2-17.3-2m11.5 26.4c0 2.8-5.3 7.9-8.3 7.9-3.1 0-5-2.2-4.5-5.2.4-2.8 4.1-4.8 9.1-4.8 3.1 0 3.7.3 3.7 2.1m28.5-25.7c-4.8 2.1-7.7 6-8.2 10.9-.5 3.8-.1 4.8 2.6 8 2.3 2.5 5.1 4.2 9.6 5.7 7.3 2.4 9.4 4.2 7.5 6.5-1.7 2.1-7.6 1.8-12.8-.5l-4.2-1.9-2.4 3.7c-1.3 2-2.1 4.1-1.9 4.6.3.4 2.6 1.7 5 2.8 5.6 2.5 16.2 2.7 21.5.5 6.4-2.7 9.5-10.5 6.4-16.5-1.9-3.6-3.6-4.7-12.6-8.2-4.2-1.7-6.6-3.2-6.8-4.4-.8-3.9 4.7-4.7 10.9-1.5 2.3 1.1 4.2 1.9 4.3 1.7.2-.2 1.5-1.9 2.9-3.9l2.7-3.6-2.3-1.6c-5.6-3.6-16.6-4.8-22.2-2.3M263 394.6v21.5l4.3-.3 4.2-.3-.3-4.2c-.3-4.1 1.1-8.3 2.6-8.3.4.1 2.7 3 5.2 6.5 4.5 6.4 4.5 6.5 9.3 6.5 2.6 0 4.7-.3 4.7-.8 0-.4-3-4.5-6.5-9.1l-6.6-8.4 6.8-6.3 6.8-6.4h-11.3l-4.9 5.9c-2.6 3.3-5.1 6-5.5 6-.4.1-.6-5.3-.4-11.9l.3-12H263zm-54.8-8.6c-4.8 3-7.2 7.5-7.2 14 0 8.8 5 14.8 13.7 16.5 5.2 1 12.8-1.9 16-6.2 5.8-7.6 3.3-20.5-4.7-24.5-4.9-2.5-13.6-2.4-17.8.2m14.9 6.9c2 1.6 2.4 2.9 2.4 7.1 0 6.3-2.6 9-8.5 9-4.9 0-8-3.5-8-9s3.1-9 8-9c2.2 0 4.7.8 6.1 1.9m29.4-7.7c-1.1.6-2.6 1.8-3.2 2.6-1.1 1.4-1.3 1.3-1.3-.6s-.6-2.2-4-2.2h-4v31h8v-9.4c0-10.9 1.7-14.2 7.2-14.8 3-.3 3.2-.6 3.3-4.1 0-3.1-.3-3.7-2-3.7-1.1 0-2.9.6-4 1.2m-102 2c.4 1.3 2.7 8.3 5.2 15.5l4.6 13.3h3.9c4.3 0 4.6-.5 7.6-11.8.9-3.4 1.9-6.2 2.3-6.2.3 0 1.8 4.1 3.3 9.1l2.7 9 4.1-.3 4.1-.3 5.2-15.3 5.1-15.2h-9.1l-1.9 7.8c-1 4.3-2.4 9.2-3 10.7-1.1 2.7-1.3 2.4-4.1-7.8l-3-10.7h-3.2c-3.1 0-3.3.2-5.3 7.2-4.6 16-3.9 15.6-7.3 3.5l-2.9-10.7h-4.5c-4.1 0-4.4.2-3.8 2.2"/></svg>